<?xml version="1.0" encoding="utf-8"?>
<!-- Generator: Adobe Illustrator 23.1.0, SVG Export Plug-In . SVG Version: 6.00 Build 0)  -->
<svg version="1.1" id="Layer_1" xmlns="http://www.w3.org/2000/svg" xmlns:xlink="http://www.w3.org/1999/xlink" x="0px" y="0px"
	 viewBox="0 0 90 90" style="enable-background:new 0 0 90 90;" xml:space="preserve">
<style type="text/css">
	.st0{fill:#4562D3;}
</style>
<g>
	<g>
		<path class="st0" d="M80,17.8c0,35.1-28.4,63.4-63.4,63.4c-1.5,0-2.9-1.1-3.2-2.5l-3.3-14.2c-0.4-1.5,0.5-3.1,1.9-3.8l15.3-6.6
			c1.3-0.6,2.9-0.2,3.8,0.9l6.8,8.3c10.7-5,19.3-13.7,24.2-24.2l-8.3-6.8c-1.1-0.9-1.5-2.5-0.9-3.8l6.6-15.3
			c0.6-1.4,2.2-2.3,3.8-1.9l14.2,3.3C78.9,14.9,80,16.2,80,17.8z"/>
	</g>
</g>
</svg>
