<?xml version="1.0" encoding="utf-8"?>
<!-- Generator: Adobe Illustrator 23.1.0, SVG Export Plug-In . SVG Version: 6.00 Build 0)  -->
<svg version="1.1" id="Layer_1" xmlns="http://www.w3.org/2000/svg" xmlns:xlink="http://www.w3.org/1999/xlink" x="0px" y="0px"
	 viewBox="0 0 90 90" style="enable-background:new 0 0 90 90;" xml:space="preserve">
<style type="text/css">
	.st0{fill:#4562D3;}
</style>
<g>
	<g>
		<path class="st0" d="M83.9,59c-4,2-9.9,2.9-13,2.8c0-0.9,0-1.8,0-2.7c-0.2-6.2-3.1-10.5-8.7-13.1c-0.4-0.2-0.8-0.3-1.2-0.5
			c2.2-2.2,3.3-4.8,3.5-7.7c0.1-0.1,0.1-0.1,0.2-0.1c3.1,0,6.3-0.1,9.4,0.2c4.9,0.5,9.1,4.8,9.8,9.7c0,0.2,0.1,0.4,0.2,0.7
			C83.9,51.8,83.9,55.4,83.9,59z"/>
		<path class="st0" d="M53.5,72.2c0,1.6,0,3.2,0,4.9c0,0.5-0.2,0.8-0.6,1c-3,1.4-6.2,2.1-9.5,2.4c-7,0.7-13.8-0.3-20.5-2.3
			c-0.5-0.1-0.7-0.3-0.7-0.9c0-3,0-6,0-9C22.2,62,26.7,57,32.9,56.6c3.4-0.3,6.9-0.2,10.3,0.1c5.6,0.5,10.1,5.5,10.2,11.1
			C53.5,69.2,53.5,70.7,53.5,72.2C53.5,72.2,53.5,72.2,53.5,72.2z"/>
		<path class="st0" d="M6.2,68.5c0-3.9-0.2-7.7,0.1-11.5c0.4-4.9,4.8-9.2,9.6-9.8C17,47,18.1,47,19.3,47c2.4,0,4.7,0,7.1,0
			c0.2,3.1,1.3,5.7,3.5,7.9c-3.5,1.2-6.1,3.2-8,6.3c-1.9,3.1-2.1,6.4-1.9,10C15.2,70.9,10.6,69.8,6.2,68.5z"/>
		<path class="st0" d="M55.7,71.2c0-0.9,0-1.7,0-2.5c0-6.5-3.5-11.5-9.6-13.7c-0.1,0-0.2-0.1-0.4-0.2c2.1-2.2,3.3-4.7,3.5-7.7
			c0.1,0,0.1-0.1,0.2-0.1c3.2,0,6.4-0.1,9.6,0.2c5.3,0.6,9.6,5.6,9.8,10.8c0.1,3.2,0,6.4,0.1,9.7c0,0.5-0.3,0.7-0.6,0.9
			c-2.8,1.3-5.7,1.9-8.7,2.3C58.2,71,57,71.1,55.7,71.2z"/>
		<path class="st0" d="M27.4,19.3c0-5.5,4.4-10,9.9-10c5.5,0,10,4.5,10,10c0,5.5-4.5,10-10,10C31.9,29.3,27.4,24.8,27.4,19.3z"/>
		<path class="st0" d="M37.8,55.8c-5.1,0-9.2-4.1-9.2-9.2c0-5.1,4.1-9.2,9.2-9.2c5,0,9.2,4.2,9.2,9.2C47,51.7,42.9,55.8,37.8,55.8z"
			/>
		<path class="st0" d="M12.5,37.1c0-5.1,4-9.1,9.1-9.2c5.1-0.1,9.2,4,9.3,9.1c0,0.3-0.2,0.7-0.4,1c-2,1.7-3.2,3.9-3.8,6.4
			c-0.1,0.3-0.3,0.6-0.6,0.7C20.1,48.6,12.5,44.1,12.5,37.1z"/>
		<path class="st0" d="M77.5,27.9c0,6.4-6.4,10.9-12.3,8.7c-0.5-0.2-0.8-0.4-0.9-1c-0.5-3.1-2.1-5.6-4.7-7.4c-0.4-0.3-0.5-0.5-0.5-1
			c0.2-4.3,4-8.1,8.3-8.4c4.7-0.4,8.9,2.8,9.8,7.3C77.3,26.6,77.4,27.2,77.5,27.9z"/>
		<path class="st0" d="M53,46.5c-1.1-0.3-2.2-0.5-3.2-0.8c-0.4-0.1-0.6-0.4-0.7-0.8c-0.5-3.1-2-5.6-4.6-7.4
			c-0.5-0.3-0.6-0.7-0.6-1.2c0.4-4.6,4.4-8.2,9.1-8.3c4.7,0,8.7,3.5,9.2,8.1C62.8,41.6,58.5,46.4,53,46.5z"/>
		<path class="st0" d="M32.6,36.5c-0.1-2.3-0.7-4.4-2.1-6.4c4.7-0.3,9.1-0.3,13.8,0c-1.3,1.9-2,3.8-2.1,5.7
			c-1.7-0.2-3.2-0.5-4.8-0.6C35.7,35.2,34.2,35.7,32.6,36.5z"/>
	</g>
</g>
</svg>
