<?xml version="1.0" encoding="utf-8"?>
<!-- Generator: Adobe Illustrator 23.1.0, SVG Export Plug-In . SVG Version: 6.00 Build 0)  -->
<svg version="1.1" id="Layer_1" xmlns="http://www.w3.org/2000/svg" xmlns:xlink="http://www.w3.org/1999/xlink" x="0px" y="0px"
	 viewBox="0 0 90 90" style="enable-background:new 0 0 90 90;" xml:space="preserve">
<style type="text/css">
	.st0{fill:#4562D3;}
</style>
<g>
	<path class="st0" d="M82.8,22.1l-3.4,3.4c-0.9,0.9-2.5,0.9-3.4,0L64.5,37.1c3,7,1.6,15.4-4.1,21.1L36.5,82c-3.8,3.8-9.9,3.8-13.6,0
		L9.3,68.4c-3.8-3.8-3.8-9.9,0-13.6L33.1,31c5.7-5.7,14.1-7.1,21.1-4.1l11.5-11.5c-0.9-0.9-0.9-2.5,0-3.4l3.4-3.4
		c0.9-0.9,2.5-0.9,3.4,0l10.2,10.2C83.7,19.7,83.7,21.2,82.8,22.1z M51.8,53.1L38.2,39.5L19.8,57.9l13.6,13.6L51.8,53.1z"/>
</g>
</svg>
