<?xml version="1.0" encoding="utf-8"?>
<!-- Generator: Adobe Illustrator 23.1.0, SVG Export Plug-In . SVG Version: 6.00 Build 0)  -->
<svg version="1.1" id="Layer_1" xmlns="http://www.w3.org/2000/svg" xmlns:xlink="http://www.w3.org/1999/xlink" x="0px" y="0px"
	 viewBox="0 0 90 90" style="enable-background:new 0 0 90 90;" xml:space="preserve">
<style type="text/css">
	.st0{fill:#4562D3;}
</style>
<g>
	<path class="st0" d="M73.7,33.5c2.2,3.1,3.7,7,4.5,11.7c0.7,4.3,0.6,8.6-0.2,12.9c-1.2,7.1-3.6,13.1-7.2,17.9
		c-4.3,5.8-9.7,8.7-16.2,8.7c-1.6,0-3.4-0.5-5.3-1.5c-1.3-0.8-2.8-1.2-4.4-1.2c-1.6,0-3.1,0.4-4.4,1.2c-1.9,1-3.7,1.5-5.3,1.5
		c-6.5,0-11.9-2.9-16.2-8.7c-3.6-4.8-6-10.8-7.2-17.9c-0.8-4.3-0.9-8.6-0.2-12.9c0.8-4.7,2.3-8.6,4.5-11.7c2.5-3.5,5.7-5.6,9.6-6.3
		c2.4-0.4,5.7,0,9.9,1.1c3.6,1,6.7,2.2,9.2,3.6c2.5-1.4,5.6-2.6,9.2-3.6c4.2-1.1,7.5-1.5,9.9-1.1C68,27.9,71.2,30,73.7,33.5z
		 M50.3,23.9c-1.6,0.5-3.4,0.8-5.3,0.8l-2.3-0.2c-0.2-1.4-0.2-3,0-4.8c0.4-3.6,1.6-6.4,3.5-8.3c1.4-1.3,3.3-2.3,5.6-2.9
		c1.6-0.5,3.4-0.8,5.3-0.8L59.3,8l0.2,2.3c0,1.9-0.3,3.7-0.8,5.3c-0.6,2.3-1.5,4.2-2.9,5.6C54.4,22.4,52.6,23.3,50.3,23.9z"/>
</g>
</svg>
