<?xml version="1.0" encoding="utf-8"?>
<!-- Generator: Adobe Illustrator 23.1.0, SVG Export Plug-In . SVG Version: 6.00 Build 0)  -->
<svg version="1.1" id="Layer_1" xmlns="http://www.w3.org/2000/svg" xmlns:xlink="http://www.w3.org/1999/xlink" x="0px" y="0px"
	 viewBox="0 0 90 90" style="enable-background:new 0 0 90 90;" xml:space="preserve">
<style type="text/css">
	.st0{fill:#4562D3;}
</style>
<g>
	<path class="st0" d="M78.7,24.7v7.2H11.3v-7.2c0-4,3.2-7.2,7.2-7.2h7.2v-7.2c0-1.3,1.1-2.4,2.4-2.4H33c1.3,0,2.4,1.1,2.4,2.4v7.2
		h19.3v-7.2c0-1.3,1.1-2.4,2.4-2.4h4.8c1.3,0,2.4,1.1,2.4,2.4v7.2h7.2C75.5,17.4,78.7,20.7,78.7,24.7z M11.3,36.7h67.4v40.9
		c0,4-3.2,7.2-7.2,7.2H18.5c-4,0-7.2-3.2-7.2-7.2V36.7z M20.9,54.1c0,1,0.8,1.8,1.8,1.8h6c1,0,1.8-0.8,1.8-1.8v-6
		c0-1-0.8-1.8-1.8-1.8h-6c-1,0-1.8,0.8-1.8,1.8V54.1z M20.9,73.4c0,1,0.8,1.8,1.8,1.8h6c1,0,1.8-0.8,1.8-1.8v-6c0-1-0.8-1.8-1.8-1.8
		h-6c-1,0-1.8,0.8-1.8,1.8V73.4z M40.2,54.1c0,1,0.8,1.8,1.8,1.8h6c1,0,1.8-0.8,1.8-1.8v-6c0-1-0.8-1.8-1.8-1.8h-6
		c-1,0-1.8,0.8-1.8,1.8V54.1z M40.2,73.4c0,1,0.8,1.8,1.8,1.8h6c1,0,1.8-0.8,1.8-1.8v-6c0-1-0.8-1.8-1.8-1.8h-6
		c-1,0-1.8,0.8-1.8,1.8V73.4z M59.4,54.1c0,1,0.8,1.8,1.8,1.8h6c1,0,1.8-0.8,1.8-1.8v-6c0-1-0.8-1.8-1.8-1.8h-6
		c-1,0-1.8,0.8-1.8,1.8V54.1z M59.4,73.4c0,1,0.8,1.8,1.8,1.8h6c1,0,1.8-0.8,1.8-1.8v-6c0-1-0.8-1.8-1.8-1.8h-6
		c-1,0-1.8,0.8-1.8,1.8V73.4z"/>
</g>
</svg>
