<?xml version="1.0" encoding="utf-8"?>
<!-- Generator: Adobe Illustrator 23.1.0, SVG Export Plug-In . SVG Version: 6.00 Build 0)  -->
<svg version="1.1" id="Layer_1" xmlns="http://www.w3.org/2000/svg" xmlns:xlink="http://www.w3.org/1999/xlink" x="0px" y="0px"
	 viewBox="0 0 90 90" style="enable-background:new 0 0 90 90;" xml:space="preserve">
<style type="text/css">
	.st0{fill:#4562D3;}
</style>
<g>
	<g>
		<path class="st0" d="M34.1,59.3c-5.6,0-10.8-1.3-15.2-3.4c-3,1.7-7.1,3.4-12.1,3.4c-0.4,0-0.8-0.2-1-0.7s-0.1-0.9,0.2-1.2
			c0,0,3.1-3.3,4.9-7.5c-3.3-3.6-5.2-7.9-5.2-12.6c0-12.1,12.7-21.9,28.4-21.9s28.4,9.8,28.4,21.9S49.8,59.3,34.1,59.3z M84.1,75
			c0.3,0.3,0.4,0.8,0.2,1.2c-0.2,0.4-0.6,0.7-1,0.7c-5,0-9.1-1.7-12.1-3.4c-4.4,2.2-9.6,3.4-15.2,3.4c-11.8,0-21.9-5.5-26.2-13.4
			c1.4,0.2,2.9,0.3,4.3,0.3c18.1,0,32.8-11.8,32.8-26.3c0-0.9-0.1-1.8-0.2-2.7C77.1,38,84.4,45.8,84.4,54.9c0,4.7-1.9,9-5.2,12.6
			C81,71.7,84,74.9,84.1,75z"/>
	</g>
</g>
</svg>
