<?xml version="1.0" encoding="utf-8"?>
<!-- Generator: Adobe Illustrator 23.1.0, SVG Export Plug-In . SVG Version: 6.00 Build 0)  -->
<svg version="1.1" id="Layer_1" xmlns="http://www.w3.org/2000/svg" xmlns:xlink="http://www.w3.org/1999/xlink" x="0px" y="0px"
	 viewBox="0 0 90 90" style="enable-background:new 0 0 90 90;" xml:space="preserve">
<style type="text/css">
	.st0{fill:#4562D3;}
</style>
<g>
	<path class="st0" d="M37.3,60.4l1.5,0.9l-1.2,2.8c-1,2.4-3.4,4-6,4H20.9c-2.4,0-4.4-2-4.4-4.4c0-2.4,2-4.4,4.4-4.4h9.1l2-4.7
		C33.2,57,34.9,59,37.3,60.4z M73.4,46.2c0,2.4-2,4.4-4.4,4.4h-7.4c-2.5,0-4.8-1.4-5.9-3.7L53,41.2l-4.3,10.7l8.4,4.9
		c2.6,1.5,3.8,4.6,3,7.4l-4.3,13.8c-0.6,1.9-2.3,3.1-4.2,3.1c-0.4,0-0.9-0.1-1.3-0.2c-2.3-0.7-3.6-3.2-2.9-5.5l3.8-12l-11.6-6.9
		c-3.8-2.2-5.3-6.9-3.6-11l5.1-11.9l-2-0.6c-1.1-0.3-2.4,0-3.5,0.8l-5.4,4.2c-1.9,1.5-4.7,1.1-6.1-0.8c-1.5-1.9-1.1-4.7,0.8-6.1
		l5.4-4.2c3.2-2.4,7.2-3.3,11.1-2.3l9.7,2.9c3.6,0.9,6.7,3.5,8.4,7l3.6,7.3h6C71.5,41.8,73.4,43.8,73.4,46.2z M47.2,17.8
		c0-3.6,2.9-6.6,6.6-6.6c3.6,0,6.6,2.9,6.6,6.6c0,3.6-2.9,6.6-6.6,6.6C50.1,24.3,47.2,21.4,47.2,17.8z"/>
</g>
</svg>
