<?xml version="1.0" encoding="utf-8"?>
<!-- Generator: Adobe Illustrator 23.1.0, SVG Export Plug-In . SVG Version: 6.00 Build 0)  -->
<svg version="1.1" id="Layer_1" xmlns="http://www.w3.org/2000/svg" xmlns:xlink="http://www.w3.org/1999/xlink" x="0px" y="0px"
	 viewBox="0 0 90 90" style="enable-background:new 0 0 90 90;" xml:space="preserve">
<style type="text/css">
	.st0{fill:#4562D3;}
</style>
<g>
	<g>
		<path class="st0" d="M7.9,45.9c0-0.6,0-1.2,0-1.7C8,44.1,8,44,8.1,44c0.5-1.9,1.8-3.1,3.7-3.5c1.9-0.3,3.4,0.4,4.6,1.9
			c0.1,0.1,0.2,0.3,0.4,0.3c1.3,0,2.7,0,4,0c0.5-5,2.4-9.3,5.5-13.2c-0.8-0.8-1.6-1.5-2.4-2.3c-0.4-0.4-0.8-0.6-1.4-0.5
			c-3.2,0.4-5.7-2.6-4.9-5.7c0.6-2.4,2.9-3.9,5.4-3.4c2.4,0.4,4,2.6,3.7,5.1c0,0.3-0.1,0.7,0.1,0.8c0.9,1,1.8,1.9,2.8,2.8
			c3.9-3.1,8.2-4.9,13.2-5.5c0-1.1,0-2.2,0-3.2c0-0.6-0.1-1-0.7-1.4c-1.5-1.2-2-3.2-1.4-5C41.3,9.3,43,8,44.9,8c2,0,3.8,1.2,4.4,3.1
			c0.7,1.9,0.1,3.9-1.5,5.2c-0.2,0.2-0.5,0.4-0.5,0.6c0,1.3,0,2.6,0,3.9c5,0.5,9.3,2.3,13.2,5.5c0.8-0.8,1.5-1.6,2.3-2.4
			c0.4-0.4,0.6-0.8,0.5-1.4c-0.4-3.1,2.6-5.7,5.6-4.9c2.4,0.6,3.9,2.9,3.5,5.3c-0.4,2.4-2.6,4-5.1,3.8c-0.3,0-0.7,0-0.9,0.1
			c-0.9,0.9-1.8,1.8-2.8,2.7c3.1,3.9,5,8.2,5.5,13.2c1.2,0,2.4,0,3.6,0c0.4,0,0.7-0.1,1-0.5c2-2.6,5.8-2.5,7.5,0.2
			c0.4,0.6,0.5,1.2,0.8,1.8c0,0.5,0,1,0,1.4c0,0.1-0.1,0.2-0.1,0.3c-0.5,2-1.7,3.2-3.7,3.6c-1.9,0.3-3.4-0.4-4.6-1.9
			c-0.1-0.1-0.2-0.3-0.4-0.3c-1.3,0-2.7,0-4,0c-0.5,5-2.4,9.3-5.5,13.2c0.8,0.8,1.6,1.5,2.4,2.3c0.4,0.4,0.8,0.6,1.4,0.5
			c3.1-0.4,5.7,2.6,4.9,5.6c-0.6,2.4-2.9,3.9-5.4,3.5c-2.4-0.4-4-2.7-3.7-5.1c0-0.3,0.1-0.6,0-0.8c-0.9-1-1.9-1.9-2.8-2.9
			c-1.9,1.6-4,2.8-6.2,3.7c-2.2,0.9-4.5,1.5-7,1.7c0,1.2,0,2.3,0,3.5c0,0.5,0.1,0.8,0.5,1.1c2.1,1.6,2.4,4.6,0.7,6.6
			c-0.7,0.9-1.7,1.3-2.8,1.6c-0.5,0-1,0-1.4,0c-0.1,0-0.1-0.1-0.2-0.1c-1.9-0.5-3.2-1.7-3.6-3.6c-0.4-2,0.3-3.5,1.9-4.7
			c0.1-0.1,0.3-0.2,0.3-0.4c0-1.3,0-2.7,0-4c-5-0.5-9.3-2.4-13.2-5.5c-0.8,0.8-1.6,1.6-2.4,2.4c-0.4,0.4-0.6,0.8-0.5,1.4
			c0.2,1.8-0.7,3.6-2.4,4.5c-1.6,0.9-3.7,0.7-5.1-0.5c-1.6-1.3-2.2-3.5-1.4-5.3c0.8-1.9,2.7-3,4.8-2.8c0.3,0,0.7,0.1,0.8-0.1
			c1-0.9,1.9-1.8,2.8-2.8c-3.1-3.9-4.9-8.2-5.5-13.1c-1.2,0-2.3,0-3.5,0c-0.5,0-0.8,0.1-1.1,0.5c-1.1,1.4-2.5,2-4.3,1.7
			c-1.8-0.3-3.1-1.3-3.7-3C8.1,46.3,8,46.1,7.9,45.9z M51.9,53.2c0-2.6-2-4.7-4.6-4.7c-2.5,0-4.6,2-4.7,4.5c0,2.6,2,4.7,4.5,4.7
			C49.8,57.8,51.9,55.7,51.9,53.2z M37.3,43.8c2.2,0,4.1-1.8,4.1-4c0-2.2-1.8-4.1-4-4.1c-2.2,0-4.1,1.8-4.1,4
			C33.3,42,35.1,43.8,37.3,43.8z M55.4,34.6c-1.9,0-3.5,1.6-3.5,3.4c0,1.9,1.6,3.5,3.5,3.5c1.9,0,3.5-1.6,3.5-3.4
			C58.9,36.2,57.3,34.6,55.4,34.6z"/>
	</g>
</g>
</svg>
