<?xml version="1.0" encoding="utf-8"?>
<!-- Generator: Adobe Illustrator 23.1.0, SVG Export Plug-In . SVG Version: 6.00 Build 0)  -->
<svg version="1.1" id="Layer_1" xmlns="http://www.w3.org/2000/svg" xmlns:xlink="http://www.w3.org/1999/xlink" x="0px" y="0px"
	 viewBox="0 0 90 90" style="enable-background:new 0 0 90 90;" xml:space="preserve">
<style type="text/css">
	.st0{fill:#4562D3;}
</style>
<g>
	<path class="st0" d="M82.3,46.3c0,20.6-16.7,37.3-37.3,37.3S7.7,66.9,7.7,46.3S24.4,9,45,9S82.3,25.7,82.3,46.3z M56.1,61.3
		l4.2-5.8c0.6-0.8,0.4-1.9-0.4-2.5L50.4,46V25.3c0-1-0.8-1.8-1.8-1.8h-7.2c-1,0-1.8,0.8-1.8,1.8v25.3c0,0.6,0.3,1.1,0.7,1.5
		l13.3,9.6C54.4,62.3,55.5,62.1,56.1,61.3z"/>
</g>
</svg>
