<?xml version="1.0" encoding="utf-8"?>
<!-- Generator: Adobe Illustrator 23.1.0, SVG Export Plug-In . SVG Version: 6.00 Build 0)  -->
<svg version="1.1" id="Layer_1" xmlns="http://www.w3.org/2000/svg" xmlns:xlink="http://www.w3.org/1999/xlink" x="0px" y="0px"
	 viewBox="0 0 90 90" style="enable-background:new 0 0 90 90;" xml:space="preserve">
<style type="text/css">
	.st0{fill:#4562D3;}
</style>
<g>
	<path class="st0" d="M83.6,51.1c0,2.7-2.2,4.8-4.8,4.8H74v9.6c0,5.3-4.3,9.6-9.6,9.6h-9.6v9.6H16.2V58.2
		c-5.3-4.7-9.6-14.4-9.6-21.5v0c0-15.9,12.9-28.9,28.9-28.9h11.1c9,0,20.4,5.9,25.6,13.3c3.7,5.3,7.8,21,11,28.1
		C83.4,49.7,83.6,50.6,83.6,51.1z M64.3,31.9c0-4-3.2-7.2-7.2-7.2h-0.4c-0.9-2.7-3.9-4.8-6.7-4.8c-1.1,0-2.7,0.4-3.6,1
		c-1.2-1.9-3.9-3.4-6.1-3.4s-4.9,1.5-6.1,3.4c-0.9-0.5-2.5-1-3.5-1c-4,0-7.2,3.2-7.2,7.2h0c-4,0-7.2,3.2-7.2,7.2
		c0,2.8,2.2,5.9,4.9,6.8c0,0.1,0,0.3,0,0.4c0,4,3.2,7.2,7.2,7.2c0.7,0,1.8-0.2,2.4-0.4v7.7h9.6v-7.7c0.6,0.2,1.7,0.4,2.4,0.4
		c4,0,7.2-3.2,7.2-7.2c0-0.7-0.2-1.8-0.4-2.4h7.7C61.1,39.1,64.3,35.9,64.3,31.9z M30.6,34.7c0-0.1,0-0.3,0-0.4L30.6,34.7
		C30.6,34.7,30.6,34.7,30.6,34.7z"/>
</g>
</svg>
