<?xml version="1.0" encoding="utf-8"?>
<!-- Generator: Adobe Illustrator 23.1.0, SVG Export Plug-In . SVG Version: 6.00 Build 0)  -->
<svg version="1.1" id="Layer_1" xmlns="http://www.w3.org/2000/svg" xmlns:xlink="http://www.w3.org/1999/xlink" x="0px" y="0px"
	 viewBox="0 0 90 90" style="enable-background:new 0 0 90 90;" xml:space="preserve">
<style type="text/css">
	.st0{fill:#4562D3;}
</style>
<g>
	<path class="st0" d="M84.4,49.6v23.6c0,1.1-0.9,2-2,2h-3.9c-1.1,0-2-0.9-2-2v-5.9h-63v5.9c0,1.1-0.9,2-2,2H7.6c-1.1,0-2-0.9-2-2
		V29.9c0-1.1,0.9-2,2-2h3.9c1.1,0,2,0.9,2,2v25.6h27.6V37.8c0-1.1,0.9-2,2-2h27.6C78.2,35.8,84.4,42,84.4,49.6z M17.4,41.7
		c0-5.4,4.4-9.8,9.8-9.8s9.8,4.4,9.8,9.8s-4.4,9.8-9.8,9.8S17.4,47.1,17.4,41.7z"/>
</g>
</svg>
