<?xml version="1.0" encoding="utf-8"?>
<!-- Generator: Adobe Illustrator 23.1.0, SVG Export Plug-In . SVG Version: 6.00 Build 0)  -->
<svg version="1.1" id="Layer_1" xmlns="http://www.w3.org/2000/svg" xmlns:xlink="http://www.w3.org/1999/xlink" x="0px" y="0px"
	 viewBox="0 0 90 90" style="enable-background:new 0 0 90 90;" xml:space="preserve">
<style type="text/css">
	.st0{fill:#4562D3;}
</style>
<g>
	<g>
		<path class="st0" d="M81.1,27.1c0,33.3-20.4,51.8-33.3,57.2C46,85,44,85,42.2,84.3C26.1,77.6,8.9,56.9,8.9,27.1
			c0-2.9,1.8-5.5,4.5-6.7l28.9-12c0.7-0.3,2-0.6,2.8-0.6s2,0.2,2.8,0.6l28.9,12C79.3,21.5,81.1,24.1,81.1,27.1z M69.6,34.2l-3.4-3.4
			c-0.9-0.9-2.5-0.9-3.4,0L40.2,53.4L29.6,42.8c-0.9-0.9-2.5-0.9-3.4,0l-3.4,3.4c-0.9,0.9-0.9,2.5,0,3.4l15.6,15.6
			c0.9,0.9,2.5,0.9,3.4,0l27.7-27.7C70.5,36.6,70.5,35.1,69.6,34.2z"/>
	</g>
</g>
</svg>
