<?xml version="1.0" encoding="utf-8"?>
<!-- Generator: Adobe Illustrator 23.1.0, SVG Export Plug-In . SVG Version: 6.00 Build 0)  -->
<svg version="1.1" id="Layer_1" xmlns="http://www.w3.org/2000/svg" xmlns:xlink="http://www.w3.org/1999/xlink" x="0px" y="0px"
	 viewBox="0 0 90 90" style="enable-background:new 0 0 90 90;" xml:space="preserve">
<style type="text/css">
	.st0{fill:#4562D3;}
</style>
<g>
	<path class="st0" d="M46.6,24.3L67,44.7L39.6,72.1c-2.6,2.6-6.2,3.8-9.8,3.5l-9.6-1.1l-10,10c-0.5,0.5-1.2,0.5-1.7,0l-1.7-1.7
		c-0.5-0.5-0.5-1.2,0-1.7l10-10l-1.1-9.6c-0.4-3.7,0.9-7.2,3.5-9.8l4-4l8.4,8.4c0.5,0.5,1.2,0.5,1.7,0l1.7-1.7
		c0.5-0.5,0.5-1.2,0-1.7l-8.4-8.4l6.8-6.8l8.4,8.4c0.5,0.5,1.2,0.5,1.7,0l1.7-1.7c0.5-0.5,0.5-1.2,0-1.7l-8.4-8.4L46.6,24.3z
		 M83.2,21.8l-1.7,1.7c-0.5,0.5-1.2,0.5-1.7,0l-4.3-4.3L68.7,26l11.1,11.1c0.5,0.5,0.5,1.2,0,1.7l-5.1,5.1c-0.5,0.5-1.2,0.5-1.7,0
		l-2.6-2.6L50,20.9l-2.6-2.6c-0.5-0.5-0.5-1.2,0-1.7l5.1-5.1c0.5-0.5,1.2-0.5,1.7,0l2.6,2.6l8.5,8.5l6.8-6.8l-4.3-4.3
		c-0.5-0.5-0.5-1.2,0-1.7l1.7-1.7c0.5-0.5,1.2-0.5,1.7,0l11.9,11.9C83.6,20.6,83.6,21.3,83.2,21.8z"/>
</g>
</svg>
