<?xml version="1.0" encoding="utf-8"?>
<!-- Generator: Adobe Illustrator 23.1.0, SVG Export Plug-In . SVG Version: 6.00 Build 0)  -->
<svg version="1.1" id="Layer_1" xmlns="http://www.w3.org/2000/svg" xmlns:xlink="http://www.w3.org/1999/xlink" x="0px" y="0px"
	 viewBox="0 0 90 90" style="enable-background:new 0 0 90 90;" xml:space="preserve">
<style type="text/css">
	.st0{fill:#4562D3;}
</style>
<g>
	<g>
		<path class="st0" d="M44.4,7.2c0.4,0,0.8,0,1.2,0c0.2,0.1,0.4,0.2,0.6,0.3c9.5,3.3,19,6.7,28.5,10c1.5,0.5,1.9,1.1,1.9,2.7
			c0,6.1,0.1,12.3,0,18.4c0,2.8-0.2,5.6-0.7,8.3c-3,15.5-11.6,26.7-25.7,33.8c-1.5,0.8-3.1,1.3-4.6,2c-0.4,0-0.8,0-1.2,0
			c-0.2-0.1-0.4-0.2-0.6-0.3c-1.5-0.7-3.1-1.2-4.6-2C23.3,72.6,13.4,56.7,13.3,39c0-6.3,0-12.6,0-18.9c0-1.4,0.5-2.1,1.8-2.5
			c8.5-3,16.9-5.9,25.4-8.9C41.8,8.2,43.1,7.7,44.4,7.2z M54.2,29.6c-2-1.5-4.4-2.5-6.9-2.9c0-1.1,0-2.1,0-3.1c0.3,0,0.6,0,0.8,0
			c1.2-0.1,2.1-1,2.1-2.2c0-1.2-0.9-2.2-2.1-2.2c-2,0-4,0-6,0c-1.2,0-2.1,1-2.1,2.2c0,1.2,0.9,2.1,2.1,2.2c0.3,0,0.5,0,0.8,0
			c0,1.1,0,2,0,3.1c-2.6,0.4-4.9,1.4-7.1,3c-0.4-0.4-0.7-0.8-1-1.1c-0.4-0.4-0.8-0.7-1.1-1c0.3-0.3,0.5-0.5,0.7-0.7
			c0.7-0.9,0.7-2.2-0.1-3c-0.8-0.8-2.1-0.9-3-0.1c-1.5,1.4-3,2.9-4.4,4.4c-0.8,0.9-0.7,2.2,0.1,3c0.8,0.8,2.1,0.8,3,0.1
			c0.2-0.2,0.4-0.4,0.6-0.5c0.7,0.8,1.5,1.5,2.1,2.1c-0.6,1.1-1.2,2.1-1.7,3.3c-0.5,1.2-0.8,2.4-1.2,3.7c-0.9,0-1.9,0-3,0
			c0-0.3,0-0.6,0-0.8c-0.1-1.2-1.1-2.1-2.2-2.1c-1.1,0-2.1,0.9-2.2,2.1c0,2,0,4.1,0,6.1c0,1.2,1,2.1,2.2,2.1c1.2,0,2.2-0.9,2.2-2.1
			c0-0.3,0-0.5,0-0.8c1.1,0,2.1,0,3.1,0c0.4,2.6,1.4,4.9,2.8,6.9c-0.7,0.8-1.4,1.5-2.2,2.2c-0.1-0.1-0.3-0.3-0.5-0.4
			c-1-0.9-2.3-0.9-3.1,0c-0.9,0.9-0.9,2.2,0,3.1c1.4,1.4,2.8,2.8,4.2,4.2c0.9,0.9,2.3,0.9,3.1,0c0.9-0.8,0.9-2.2,0-3.1
			c-0.2-0.2-0.3-0.4-0.4-0.5c0.8-0.8,1.5-1.5,2.2-2.2c2,1.5,4.4,2.4,6.9,2.9c0,0.6,0,1.1,0,1.5c0,0.5,0,1,0,1.5c-0.3,0-0.5,0-0.7,0
			c-1.3,0-2.3,1-2.3,2.2c0,1.2,1,2.2,2.2,2.2c2,0,3.9,0,5.9,0c1.3,0,2.2-1,2.2-2.2c0-1.2-0.9-2.1-2.1-2.2c-0.2,0-0.5,0-0.8,0
			c0-1.1,0-2.1,0-3.1c2.6-0.4,4.9-1.4,6.9-2.9c0.7,0.7,1.4,1.5,2.2,2.2c-0.1,0.1-0.3,0.3-0.4,0.5c-0.8,0.9-0.8,2.2,0,3.1
			c0.8,0.8,2.2,0.9,3.1,0.1c1.5-1.4,2.9-2.9,4.3-4.3c0.8-0.9,0.7-2.2-0.1-3c-0.8-0.8-2.1-0.9-3.1-0.1c-0.2,0.2-0.4,0.4-0.5,0.5
			c-0.8-0.7-1.5-1.4-2.2-2.2c1.5-2.1,2.5-4.4,2.9-6.9c1.1,0,2.1,0,3.1,0c0,0.3,0,0.5,0,0.8c0.1,1.2,1,2.1,2.2,2.1
			c1.2,0,2.2-0.9,2.2-2.1c0-2,0-4,0-6c0-1.2-1-2.1-2.2-2.1c-1.2,0-2.1,0.9-2.2,2.1c0,0.3,0,0.5,0,0.8c-1.1,0-2.1,0-3.1,0
			c-0.4-2.6-1.4-4.9-2.8-6.9c0.8-0.8,1.5-1.5,2.2-2.2c0.2,0.1,0.4,0.4,0.6,0.5c0.9,0.7,2.2,0.6,2.9-0.2c0.8-0.8,0.9-2.1,0.1-3
			c-1.4-1.5-2.9-3-4.4-4.4c-0.8-0.8-2.1-0.7-2.9,0.1c-0.8,0.8-0.9,2.1-0.2,3c0.2,0.2,0.4,0.4,0.5,0.6C55.6,28.1,54.9,28.8,54.2,29.6
			z"/>
		<path class="st0" d="M56,42.1c0,6.1-5,11.1-11.1,11.1c-6.1,0-11-5-11-11.1C34,35.9,38.9,31,45,31C51.1,31,56,36,56,42.1z
			 M48.8,46.5c1.2,0,2.2-1,2.2-2.2c0-1.2-1-2.2-2.2-2.2c-1.2,0-2.2,1-2.2,2.3C46.6,45.5,47.6,46.5,48.8,46.5z M43.4,44.3
			c0-1.2-0.9-2.2-2.1-2.3C40,42,39,43,39,44.2c-0.1,1.2,0.9,2.3,2.2,2.3C42.3,46.5,43.3,45.5,43.4,44.3z M47.2,37.6
			c0-1.2-1-2.2-2.2-2.2c-1.2,0-2.2,1-2.2,2.2c0,1.2,1,2.3,2.2,2.2C46.2,39.8,47.2,38.8,47.2,37.6z"/>
	</g>
</g>
</svg>
